<svg xmlns="http://www.w3.org/2000/svg" version="1.1" xmlns:xlink="http://www.w3.org/1999/xlink" xmlns:svgjs="http://svgjs.dev/svgjs" viewBox="0 0 800 800"><defs><filter id="ssspot-filter" x="-20%" y="-20%" width="140%" height="140%" filterUnits="objectBoundingBox" primitiveUnits="userSpaceOnUse" color-interpolation-filters="sRGB">
	<feTurbulence type="turbulence" baseFrequency="0.022 0.218" numOctaves="2" seed="221" stitchTiles="stitch" x="0%" y="0%" width="100%" height="100%" result="turbulence"></feTurbulence>
	<feGaussianBlur stdDeviation="0 3" x="0%" y="0%" width="100%" height="100%" in="turbulence" edgeMode="duplicate" result="blur"></feGaussianBlur>
	<feDisplacementMap in="SourceGraphic" in2="blur" scale="32" xChannelSelector="R" yChannelSelector="B" x="0%" y="0%" width="100%" height="100%" result="displacementMap"></feDisplacementMap>
</filter></defs><rect width="100%" height="100%" fill="transparent"></rect><g fill="#f3841c" filter="url(#ssspot-filter)"><circle r="4.512538298285702" cx="261.4601455091455" cy="765.0028563616693" opacity="0.12863442590910384"></circle><circle r="4.705284351634328" cx="386.3633986892479" cy="731.7778484544682" opacity="0.5396814041825942"></circle><circle r="7.121487172095681" cx="84.25119682019398" cy="724.8563490431859" opacity="0.7096541621323986"></circle><circle r="6.0141198131239975" cx="286.6790284250957" cy="608.7078372489241" opacity="0.707835259268123"></circle><circle r="7.943975162097666" cx="88.35992961531385" cy="476.34126828792427" opacity="0.20036027680527005"></circle><circle r="4.885646910551626" cx="364.10573505895195" cy="110.04837335392435" opacity="0.9337566537335487"></circle><circle r="8.227811259901289" cx="684.3272424483052" cy="169.44106250668182" opacity="0.47811997330454936"></circle><circle r="4.144976146306252" cx="156.27028346700047" cy="514.9836819638534" opacity="0.6691977308345556"></circle><circle r="6.2433644091748235" cx="107.9542597217796" cy="752.811069057974" opacity="0.9302677893915657"></circle><circle r="4.668020039803443" cx="641.8099092509323" cy="743.1060107663067" opacity="0.8409462683143067"></circle><circle r="5.998737470076276" cx="744.1919654433386" cy="591.3752030430413" opacity="0.16022606671919762"></circle><circle r="4.328354952016014" cx="105.11205689030281" cy="518.9508993646593" opacity="0.7645435870025961"></circle><circle r="8.54616971792112" cx="174.22973321929328" cy="706.3895033336788" opacity="0.7495498627306539"></circle><circle r="6.228849092314628" cx="783.1624553495832" cy="712.5189992787947" opacity="0.44475378836481017"></circle><circle r="7.906151691616607" cx="178.47424047109527" cy="372.68947339496015" opacity="0.714275154874892"></circle><circle r="7.596251833427905" cx="768.0733900765254" cy="21.8139363172888" opacity="0.10864852553049162"></circle><circle r="8.397180083086692" cx="744.5604843875008" cy="200.80330673184233" opacity="0.274124820783405"></circle><circle r="7.005144399504379" cx="557.7069710519338" cy="741.5668323145974" opacity="0.6935899589782185"></circle><circle r="5.808847061639833" cx="490.0344598790085" cy="754.0568048590184" opacity="0.22787516444039302"></circle><circle r="4.973507092108607" cx="225.12855695761425" cy="369.52488554989196" opacity="0.2714395765248445"></circle><circle r="8.279685892910114" cx="180.50796651489625" cy="644.4679292576283" opacity="0.5284725844593595"></circle><circle r="7.192867302450477" cx="253.5020688374081" cy="45.61543205451318" opacity="0.5137032541353203"></circle><circle r="3.7268103016889325" cx="93.08777258381248" cy="201.1752319390026" opacity="0.5904062738974927"></circle><circle r="8.316732142384136" cx="262.1149854586455" cy="88.49977486668092" opacity="0.35631159048297123"></circle><circle r="3.7423873479760266" cx="211.76359593293708" cy="10.381187660967372" opacity="0.12877818963540566"></circle><circle r="5.490031849739493" cx="155.71037284350805" cy="82.5765646887253" opacity="0.5970508547674651"></circle><circle r="11.593700029639727" cx="393.74977207379203" cy="143.03083637281333" opacity="0.4900125648079948"></circle><circle r="5.4607475690818355" cx="174.8889595207562" cy="59.15423735271505" opacity="0.6012467053401147"></circle><circle r="2.9705871971247007" cx="202.6603854667451" cy="434.795468501061" opacity="0.8636319269074714"></circle><circle r="5.842218470404063" cx="759.2900394376458" cy="108.96849385248564" opacity="0.30531919270511215"></circle><circle r="6.616651558062119" cx="389.49474153340145" cy="522.3533348393895" opacity="0.8152160380498226"></circle><circle r="9.51458704939694" cx="580.6612390911541" cy="264.4795425306287" opacity="0.5874113189360057"></circle><circle r="7.350251895469528" cx="462.47511789725985" cy="587.6981030015237" opacity="0.4426055223140454"></circle><circle r="6.002856405013906" cx="328.9240669415544" cy="295.45548980470494" opacity="0.8517599936816282"></circle><circle r="3.588594404207481" cx="701.3604329589687" cy="695.7759485683887" opacity="0.3389752221156598"></circle><circle r="8.660716140986867" cx="595.8278839837442" cy="225.9957026767382" opacity="0.2756063865772356"></circle><circle r="8.265972458226695" cx="261.6442899659626" cy="638.0421935628145" opacity="0.8840424926100565"></circle><circle r="7.116385681769515" cx="178.06769009335343" cy="466.93508527499125" opacity="0.17477689607347613"></circle><circle r="8.002162517015181" cx="781.3363000884261" cy="509.0696459245131" opacity="0.8390676204735655"></circle><circle r="6.283444985782436" cx="363.18847263698194" cy="426.53942553737164" opacity="0.4060199690419809"></circle><circle r="7.142089495096661" cx="429.26146691876824" cy="677.9332456248126" opacity="0.9187710927771087"></circle><circle r="5.533033422190623" cx="307.91641538121496" cy="641.0640698853605" opacity="0.8837997958377041"></circle><circle r="5.035516548716099" cx="90.76111347860059" cy="154.36421538217888" opacity="0.8218459467068933"></circle><circle r="5.876028510493245" cx="13.10946585222787" cy="755.0436168898237" opacity="0.8720224441131902"></circle><circle r="8.769743638363956" cx="143.1816219760801" cy="466.9995873300536" opacity="0.9326693611184126"></circle><circle r="5.618895789993331" cx="14.146586201884297" cy="151.32627439367243" opacity="0.13461379655455832"></circle><circle r="7.403952193235479" cx="55.934176993877074" cy="21.57210015280173" opacity="0.47909398945058723"></circle><circle r="7.570750107286066" cx="403.10330859929593" cy="203.50437799394484" opacity="0.5156121697088627"></circle><circle r="9.029717185796727" cx="705.8843365169254" cy="615.8507403886592" opacity="0.7036242495573033"></circle><circle r="7.359159502441674" cx="126.88890289643552" cy="783.6059355760636" opacity="0.6539827211707968"></circle><circle r="6.947014408366342" cx="107.60062245445556" cy="291.4086936933554" opacity="0.6241128077126639"></circle><circle r="5.099670919700199" cx="21.85349064267593" cy="83.03099600659597" opacity="0.8641670541536765"></circle><circle r="10.564657906884264" cx="21.170083317742048" cy="329.4937280131064" opacity="0.6891020312337692"></circle><circle r="8.753133012783511" cx="132.95156828405783" cy="258.3515279162376" opacity="0.12921872221596548"></circle><circle r="8.519527627573297" cx="507.96119436811244" cy="530.3603506257085" opacity="0.45234510867555655"></circle><circle r="7.123807103904973" cx="271.00736251445096" cy="271.8700107151873" opacity="0.5981076968905588"></circle><circle r="11.498271486657512" cx="192.5040820897929" cy="271.5140802492107" opacity="0.7476224403091237"></circle><circle r="7.1850461962284395" cx="689.9877944379422" cy="755.6206310918337" opacity="0.1917452197235181"></circle><circle r="8.074254821698245" cx="701.3105478180863" cy="207.43633850538023" opacity="0.30029506165830033"></circle><circle r="3.883807768897247" cx="334.5607768704375" cy="392.6791369626495" opacity="0.6502517975694668"></circle><circle r="6.125523804015295" cx="117.85942432123372" cy="180.02009460209445" opacity="0.2631089459409146"></circle><circle r="7.057492323894514" cx="323.6449555870397" cy="14.524443928405509" opacity="0.5107094298967765"></circle><circle r="5.826857970661238" cx="298.05838177994946" cy="375.0138017406267" opacity="0.8099459277988721"></circle><circle r="6.328161291004644" cx="78.71246536664194" cy="522.9476460943652" opacity="0.5436856162466118"></circle><circle r="6.013817464797044" cx="109.12068727121924" cy="673.5606244139478" opacity="0.602696382894378"></circle><circle r="6.3263848013955375" cx="79.67800734363509" cy="687.6377213187649" opacity="0.48544145555202256"></circle><circle r="5.8372386946849275" cx="388.87756313200845" cy="568.7072686357228" opacity="0.2304123553425282"></circle><circle r="3.5810984016376377" cx="757.2683614562601" cy="248.05312016425452" opacity="0.5152212663228138"></circle><circle r="5.518212409125065" cx="783.7173065393279" cy="459.8377016273774" opacity="0.6474807055894859"></circle><circle r="4.328198048204093" cx="674.8051961671715" cy="42.02095378486701" opacity="0.5521786666515891"></circle><circle r="4.316865767338967" cx="80.68798354913066" cy="271.41879056948716" opacity="0.7934766588249806"></circle><circle r="5.021289064971636" cx="227.45008396565237" cy="488.0571905052027" opacity="0.34574917564724716"></circle><circle r="5.594603302481565" cx="328.851306397673" cy="351.2641819209553" opacity="0.4957201652861729"></circle><circle r="6.203843143032396" cx="101.68141887092628" cy="117.04908717330119" opacity="0.7173497958397134"></circle><circle r="7.477490564928137" cx="630.2420283825596" cy="619.2003608321345" opacity="0.8917589073737421"></circle><circle r="6.8392497556270495" cx="776.8269660045927" cy="139.43562601865372" opacity="0.565288212194385"></circle><circle r="6.505154651297595" cx="175.61260058877497" cy="231.31070807692504" opacity="0.628602268470263"></circle><circle r="5.699559587168343" cx="31.82889185624662" cy="117.44419586656863" opacity="0.9111080658143406"></circle><circle r="4.137230029836876" cx="59.15383586237581" cy="502.3596821790358" opacity="0.2972661538157072"></circle><circle r="6.745320212398655" cx="301.89691583330625" cy="569.3839024717262" opacity="0.40567629328445176"></circle><circle r="8.788609922957587" cx="382.15664784973575" cy="76.58326148120894" opacity="0.3566697269246144"></circle><circle r="4.8323609648088475" cx="20.628373206039495" cy="541.5751308567969" opacity="0.9211677111142764"></circle><circle r="7.751106856301087" cx="325.2456025784053" cy="675.4439455342841" opacity="0.9910514974359435"></circle><circle r="5.097095562789556" cx="41.03816386831225" cy="429.0564400895771" opacity="0.8696260544733141"></circle><circle r="5.744800901634429" cx="102.38407365804795" cy="234.77285755224335" opacity="0.3674978722415895"></circle><circle r="8.803275104102628" cx="463.0194591857107" cy="777.9753755116376" opacity="0.6547667554037633"></circle><circle r="7.585175064834749" cx="659.5768562691258" cy="583.2212572062001" opacity="0.6489044077165083"></circle><circle r="8.047235494982147" cx="62.80421252917958" cy="749.4796650895541" opacity="0.2882402704803223"></circle><circle r="7.8867599119666085" cx="482.1740005674679" cy="659.6432919964939" opacity="0.3972768041822726"></circle><circle r="9.41765507657926" cx="381.6433426357622" cy="21.197926607196255" opacity="0.428174452729152"></circle><circle r="8.849419604445124" cx="76.49560706501512" cy="782.2235932186394" opacity="0.8554690087860057"></circle><circle r="8.487252790308652" cx="161.6483334113159" cy="608.9726759884807" opacity="0.19260494784707816"></circle><circle r="6.820694656323597" cx="102.10157572400061" cy="329.9741722025593" opacity="0.18245927232707748"></circle><circle r="4.367582726851731" cx="40.5065254120569" cy="243.7850674783486" opacity="0.9736662419856231"></circle><circle r="4.238580293466172" cx="721.1345540564344" cy="676.3212741643698" opacity="0.8822387933531014"></circle><circle r="5.60559275604943" cx="112.29029877310444" cy="627.1379765732672" opacity="0.22537539960065264"></circle><circle r="7.276994193582882" cx="387.58241492098733" cy="394.6176128008819" opacity="0.6501848903987432"></circle><circle r="7.148105729064164" cx="750.9543753913881" cy="449.07409723366857" opacity="0.48185055962024403"></circle><circle r="6.8529711404105" cx="449.76802493554936" cy="731.8642769133911" opacity="0.8748997049612518"></circle><circle r="10.666499653974096" cx="352.0728907943473" cy="165.426753450545" opacity="0.3925013073354706"></circle><circle r="5.000621451030847" cx="624.6662509889211" cy="209.1814237296077" opacity="0.9980430750594536"></circle><circle r="7.905464305115428" cx="208.0663493800945" cy="198.75742114192036" opacity="0.5994124026350446"></circle><circle r="7.486924199998681" cx="236.30967282994817" cy="448.0608236568247" opacity="0.6873685738988745"></circle><circle r="5.801047122333033" cx="333.1403371568111" cy="420.4159181409072" opacity="0.9047856185305158"></circle><circle r="3.2658757369731064" cx="9.341401709541236" cy="510.01284871555004" opacity="0.48531676466827234"></circle><circle r="6.871472910644457" cx="236.89283695445687" cy="247.37136158804364" opacity="0.638472601013669"></circle><circle r="4.026831723333242" cx="666.2842036315161" cy="481.3241395400329" opacity="0.9044553773938403"></circle><circle r="9.32833045870159" cx="427.5561265917725" cy="490.0119495115585" opacity="0.5560428403330043"></circle><circle r="7.724405720322201" cx="668.5578515471444" cy="299.97304961150263" opacity="0.17478220474863754"></circle><circle r="6.764003847190324" cx="688.660103265002" cy="786.0881498154307" opacity="0.2971795121977119"></circle><circle r="13.027344001473924" cx="457.0572471953062" cy="310.6590429729501" opacity="0.9973028243348707"></circle><circle r="7.679674388246738" cx="677.9331054137433" cy="393.77591111779947" opacity="0.4087508267982535"></circle><circle r="9.04406556583048" cx="265.9410992979128" cy="563.8943593356083" opacity="0.21890588803938815"></circle><circle r="5.916917052468593" cx="630.4569305358941" cy="177.70747795613127" opacity="0.20218107739401647"></circle><circle r="5.100679439590872" cx="299.10060744546547" cy="97.93980049411805" opacity="0.7080742466037167"></circle><circle r="4.4202466097806195" cx="326.05825198734397" cy="723.1847765903113" opacity="0.5664949040839473"></circle><circle r="6.177682653505206" cx="303.3108352935312" cy="744.6213106454231" opacity="0.5421447873065844"></circle><circle r="8.372868980785604" cx="67.63604298380011" cy="92.12644944712655" opacity="0.32681801210543654"></circle><circle r="7.718372491075153" cx="580.9022885586093" cy="61.02818380374378" opacity="0.916219676782057"></circle><circle r="7.8442272667816955" cx="702.6344330157768" cy="17.925569573684097" opacity="0.8769792355417592"></circle><circle r="5.1235013995085055" cx="429.03882945247074" cy="55.343544288417505" opacity="0.5987356800471026"></circle><circle r="5.873226654019117" cx="201.1785752930202" cy="410.2745895142195" opacity="0.1291255035667611"></circle><circle r="8.566035027260881" cx="570.8075113649644" cy="588.3782266450479" opacity="0.5519152418307789"></circle><circle r="9.81017272957471" cx="81.84479652891919" cy="413.61008716509866" opacity="0.875950863545373"></circle><circle r="7.342554259498111" cx="785.0729799090224" cy="660.9553808281247" opacity="0.8409664783818115"></circle><circle r="10.290540894683343" cx="609.6263596014737" cy="307.07682040550696" opacity="0.8162417129905011"></circle><circle r="6.318691292481104" cx="568.6566626881217" cy="20.39698063803554" opacity="0.7473376518919221"></circle><circle r="8.540752893535267" cx="426.1276468202191" cy="20.50398360805488" opacity="0.4071844511405506"></circle><circle r="10.03381904305713" cx="637.6725490657642" cy="256.7207351847317" opacity="0.5452092013408333"></circle><circle r="5.570117086178023" cx="780.3555197313461" cy="70.24348964882651" opacity="0.7090489372556833"></circle><circle r="4.891377295398444" cx="169.10732359015515" cy="574.1679083421665" opacity="0.7392784320676109"></circle><circle r="8.922674499380998" cx="605.1213057687976" cy="698.5893195251169" opacity="0.9918366345533141"></circle><circle r="4.557022173330125" cx="54.51559226851007" cy="183.09345021304952" opacity="0.41498574404211863"></circle><circle r="8.977339315489873" cx="514.1519068802819" cy="391.07951744222385" opacity="0.5084422906807378"></circle><circle r="5.232329243871662" cx="156.68367587705615" cy="191.81474082475043" opacity="0.7831980543058082"></circle><circle r="5.897076328799227" cx="728.329650785083" cy="242.5960108817198" opacity="0.984592137752928"></circle><circle r="7.649302110281822" cx="454.2337494615134" cy="634.9787972823596" opacity="0.23392207613446592"></circle><circle r="5.165042410333604" cx="762.4680642899699" cy="682.3463390817383" opacity="0.41118994062065306"></circle><circle r="5.992917485741877" cx="131.23877805847465" cy="727.1098228419468" opacity="0.36897932754931595"></circle><circle r="4.989364951502527" cx="504.7075077503829" cy="723.3768596596557" opacity="0.2993613599352666"></circle><circle r="8.93927930478586" cx="556.4717166444279" cy="203.54341167351586" opacity="0.5319555407555517"></circle><circle r="6.442535870488646" cx="51.81964537169665" cy="135.4539264798387" opacity="0.8395215522261534"></circle><circle r="9.31013877102307" cx="600.0404314841894" cy="397.7686327112668" opacity="0.44327318340792476"></circle><circle r="6.5578906887296835" cx="302.0381003715001" cy="404.8392129408996" opacity="0.986176078879848"></circle><circle r="4.649280761264808" cx="20.8678347372231" cy="620.6467863819246" opacity="0.43024558358250686"></circle><circle r="4.666645619172351" cx="136.03819837099803" cy="572.97531554234" opacity="0.6146971717892042"></circle><circle r="7.585831440044019" cx="640.2914579489634" cy="354.82014073738696" opacity="0.17182087125936488"></circle><circle r="6.685007107376893" cx="732.0778457356741" cy="61.92922602630238" opacity="0.6293349210536051"></circle><circle r="11.149281366228063" cx="361.84748895652376" cy="223.58672024980643" opacity="0.18700042973443037"></circle><circle r="9.46713789773067" cx="347.0675419735204" cy="41.443276451661" opacity="0.294622411381601"></circle><circle r="5.638990279776547" cx="32.836315344811275" cy="210.71623956829748" opacity="0.252330139227552"></circle><circle r="5.533775633534793" cx="516.9859260568599" cy="766.1933505055189" opacity="0.5147022022263507"></circle><circle r="7.9162121518617266" cx="152.61660422862087" cy="298.70351954747133" opacity="0.10956295644488442"></circle><circle r="6.568488187771117" cx="224.79439033034583" cy="84.86439631534482" opacity="0.6555082477327376"></circle><circle r="5.882603213549679" cx="358.4300342915004" cy="735.4853977748235" opacity="0.8690392823389868"></circle><circle r="6.126812614881089" cx="540.9351135680491" cy="259.7362909067222" opacity="0.6070781325521881"></circle><circle r="7.377879490803682" cx="759.4433242759096" cy="338.7440349995141" opacity="0.5767445690869382"></circle><circle r="6.890710045897598" cx="283.5915422948353" cy="306.711415711759" opacity="0.7505822685516227"></circle><circle r="6.944914868263268" cx="289.1683632690484" cy="25.548975132657777" opacity="0.2364472054436901"></circle><circle r="10.677534740133932" cx="648.9569892095207" cy="671.4098957138476" opacity="0.7063966373723992"></circle><circle r="5.599539469597715" cx="326.0349294970761" cy="322.6368641306063" opacity="0.39007758733181364"></circle><circle r="5.180954126443398" cx="67.90406728477846" cy="222.65426150695222" opacity="0.9329616943188154"></circle><circle r="7.1300928681538" cx="61.242947231940285" cy="555.5676369905943" opacity="0.8068438131544223"></circle><circle r="6.984547417037312" cx="13.933700203583005" cy="451.00324010535206" opacity="0.5006058240436914"></circle><circle r="8.016779336755661" cx="623.2409674045133" cy="74.24757519219936" opacity="0.24379363675313137"></circle><circle r="6.432052816233398" cx="447.0688314229909" cy="248.90550096384953" opacity="0.38506908044483135"></circle><circle r="5.34849114378565" cx="90.0992095907307" cy="650.4687275635156" opacity="0.6105941814788359"></circle><circle r="5.215006271304331" cx="193.5996548929217" cy="90.27548599883912" opacity="0.45363390687666505"></circle><circle r="8.753940980161682" cx="362.4723338236074" cy="328.98680271039945" opacity="0.4745239502731118"></circle><circle r="7.763753999259702" cx="442.12792901423165" cy="132.61616771527764" opacity="0.7021086926110698"></circle><circle r="5.265790886969081" cx="407.3156104058712" cy="322.79071893741946" opacity="0.7702399729619305"></circle><circle r="5.727069706476362" cx="12.070852364375138" cy="585.7003675854132" opacity="0.4416899674056566"></circle><circle r="7.862384238608022" cx="285.56842279555065" cy="487.12928525476786" opacity="0.2780276785975082"></circle><circle r="7.14890578383614" cx="171.71495663514008" cy="114.11308053885509" opacity="0.15032380017655242"></circle><circle r="7.021980077312273" cx="767.3885099653546" cy="418.6401463598388" opacity="0.6408257707751949"></circle><circle r="5.106625950280734" cx="717.7825217189973" cy="320.81386909163115" opacity="0.634113981660592"></circle><circle r="5.799658181631393" cx="143.74691737837625" cy="659.0328839425648" opacity="0.9309842993367081"></circle><circle r="5.097065372797401" cx="31.69663767021984" cy="570.6496465843109" opacity="0.6318036498202704"></circle><circle r="7.414667826516103" cx="417.90738303328703" cy="91.8464661616717" opacity="0.346876818246846"></circle><circle r="9.389451094887486" cx="317.5215493119078" cy="515.2387204535347" opacity="0.24137026522641036"></circle><circle r="6.301476148621901" cx="693.0937294723527" cy="256.6099431501704" opacity="0.2366084317773691"></circle><circle r="5.297305878907094" cx="272.31418587371957" cy="444.779749971742" opacity="0.20609445237955576"></circle><circle r="5.656221843405893" cx="162.25257265816782" cy="752.9261917236657" opacity="0.880307529486956"></circle><circle r="5.380034281000358" cx="310.5828612463522" cy="445.06102931282703" opacity="0.8109535135127037"></circle><circle r="4.321753243069238" cx="788.6762441069108" cy="628.3892280255418" opacity="0.4887182274394166"></circle><circle r="9.750516786942441" cx="416.06181355618384" cy="776.6805775579552" opacity="0.43749167518941956"></circle><circle r="5.548251885298123" cx="783.9432985731139" cy="594.7963642715805" opacity="0.6937070440194802"></circle><circle r="4.691660021350339" cx="785.8005212744307" cy="392.30686974315626" opacity="0.16355187645098393"></circle><circle r="5.380672499898944" cx="350.74181873076765" cy="374.1547414208373" opacity="0.37816135512603544"></circle><circle r="7.7513103022532865" cx="112.32655223584935" cy="595.3229442233488" opacity="0.5541591895390858"></circle><circle r="8.005967966839151" cx="262.07967294546967" cy="376.37529836307806" opacity="0.548266708799803"></circle><circle r="4.433379381903185" cx="760.5825458848739" cy="785.821541972456" opacity="0.8619799079769552"></circle><circle r="7.39130989095604" cx="16.313596325282216" cy="186.30217441385926" opacity="0.21800467444579658"></circle><circle r="7.509635618661031" cx="133.36349901125521" cy="218.78688516058034" opacity="0.8862085875277312"></circle><circle r="4.381264357373677" cx="250.60944512214692" cy="412.493160105775" opacity="0.7972678896104457"></circle><circle r="7.460657841684077" cx="585.9565204744529" cy="106.00259488120462" opacity="0.46369935535748275"></circle><circle r="7.307527175318128" cx="137.9937217689417" cy="16.175340859835583" opacity="0.36948083995012715"></circle><circle r="6.2283961936315535" cx="205.01082647370606" cy="458.2254778755194" opacity="0.10019861343049534"></circle><circle r="6.012080549843394" cx="622.8198931783188" cy="21.78063572074951" opacity="0.583908115238364"></circle><circle r="6.732229237348027" cx="349.6817672653882" cy="463.93440767083" opacity="0.5947222819709579"></circle><circle r="4.761621664578625" cx="125.07992984277523" cy="497.8271689705032" opacity="0.6172344153512691"></circle><circle r="5.100909678888618" cx="599.3609184784249" cy="560.4222610824019" opacity="0.3026978595875939"></circle><circle r="7.7920071484433056" cx="206.74019409760365" cy="584.5807463297407" opacity="0.10911336145191515"></circle><circle r="11.030509301495353" cx="109.93134348982586" cy="380.4823420053969" opacity="0.6578806076297863"></circle><circle r="5.970818220659079" cx="21.786059597283945" cy="667.9650516094445" opacity="0.2523239858210749"></circle><circle r="4.260592019400491" cx="760.702847843741" cy="624.449297867246" opacity="0.20206850447414826"></circle><circle r="4.983062167439757" cx="183.59721916322655" cy="502.1013126061769" opacity="0.6084452293243439"></circle><circle r="6.078187316785394" cx="522.7395841734137" cy="228.29873217058181" opacity="0.606014425733241"></circle><circle r="8.517371675909681" cx="472.8706131223043" cy="498.00175961636563" opacity="0.391414509446383"></circle><circle r="4.100304138911271" cx="57.477923560375906" cy="663.3367840624434" opacity="0.6275869527138925"></circle><circle r="5.546792297465734" cx="165.35442694153303" cy="161.35730387244624" opacity="0.6860230607875838"></circle><circle r="9.104612260489255" cx="368.6441058097928" cy="781.0050898439412" opacity="0.36204391737335717"></circle><circle r="5.05584244567785" cx="433.89535368526765" cy="603.0331906707457" opacity="0.8238445855924617"></circle><circle r="8.39674740250134" cx="424.2582663449264" cy="560.0521895791798" opacity="0.5194471668354891"></circle><circle r="5.730049602103614" cx="246.68389243044817" cy="127.00184531160104" opacity="0.16052592382392136"></circle><circle r="4.706047865116636" cx="402.5288550763878" cy="252.47809595746224" opacity="0.5698678395514138"></circle><circle r="5.051565261364139" cx="34.050729991018144" cy="729.5938982130784" opacity="0.5509135517874971"></circle><circle r="8.207518255847276" cx="701.6386189078002" cy="95.21614349860162" opacity="0.31331389189141967"></circle><circle r="10.00472649369657" cx="214.85388515531145" cy="317.88090172169296" opacity="0.6274111434769415"></circle><circle r="6.114037433838005" cx="12.76343367850072" cy="701.8858956905577" opacity="0.9368025647463173"></circle><circle r="6.89803668504285" cx="61.235118855684824" cy="355.95475600186666" opacity="0.4660809359269772"></circle><circle r="8.059510823579954" cx="748.5437872842668" cy="485.9436366519457" opacity="0.12187806293886465"></circle><circle r="6.015410144460715" cx="785.616551022912" cy="251.10682528814255" opacity="0.7626085195812222"></circle><circle r="4.863225431315271" cx="734.4410062624906" cy="288.19441433592704" opacity="0.5878628615542678"></circle><circle r="5.084364466049074" cx="642.1720373775703" cy="111.75295573225196" opacity="0.9079787082966687"></circle><circle r="7.222690001856217" cx="688.2367328201037" cy="542.345945463159" opacity="0.9171932254253118"></circle><circle r="5.5896995003941665" cx="407.55713633395555" cy="287.16695728000656" opacity="0.8342366705371678"></circle><circle r="9.777883141216257" cx="289.64863317280304" cy="697.5561077987632" opacity="0.6854644093438268"></circle><circle r="6.0825442524661995" cx="479.85079200142377" cy="19.689598424014893" opacity="0.6754904420268586"></circle><circle r="7.53183778110871" cx="35.02792472591017" cy="55.49178975745453" opacity="0.7223916232346239"></circle><circle r="7.727138904115634" cx="502.6033401163976" cy="280.39478003208376" opacity="0.4715366653679127"></circle><circle r="6.802574250056599" cx="339.43631585489754" cy="761.3470764996297" opacity="0.4067077465179889"></circle><circle r="4.848982674195656" cx="728.5948013046071" cy="768.1413382579966" opacity="0.8768450055762749"></circle><circle r="5.358396829693996" cx="179.57016140919777" cy="550.1335961858391" opacity="0.6657265092493054"></circle><circle r="4.8256099854787085" cx="725.3017190553638" cy="509.77895084338144" opacity="0.2718586897852341"></circle><circle r="6.285963307396044" cx="112.64063921105941" cy="444.1512183079802" opacity="0.4057736858056291"></circle><circle r="7.830654558400319" cx="139.9574422691713" cy="135.33153297450727" opacity="0.2696798936264107"></circle><circle r="7.308457438745125" cx="733.8199915581939" cy="370.3553067360128" opacity="0.149034036771952"></circle><circle r="4.982707789983124" cx="788.286372212374" cy="337.812100501876" opacity="0.41825740949036283"></circle><circle r="11.983571651840197" cx="513.9017884650705" cy="462.0822470223391" opacity="0.5238121767839325"></circle><circle r="10.246714357569964" cx="570.7374138148085" cy="360.0322695112375" opacity="0.12909130333359206"></circle><circle r="3.1918761842933923" cx="8.672106717486205" cy="111.89948171943954" opacity="0.1962692857603896"></circle><circle r="7.394794637249223" cx="137.6819258669405" cy="53.073011778164535" opacity="0.7048833876033601"></circle><circle r="5.974613865149065" cx="500.32702507227043" cy="593.2064730200304" opacity="0.7696332201117887"></circle><circle r="6.808799579913366" cx="25.056484157343643" cy="280.98885261129146" opacity="0.46397309908219286"></circle><circle r="8.345216040209161" cx="528.4260938766406" cy="80.87370144825844" opacity="0.42864027406157845"></circle><circle r="10.365437041342195" cx="145.76171547059295" cy="344.16211395821273" opacity="0.25704419097658504"></circle><circle r="7.507448209724521" cx="336.7585375060575" cy="584.5075163274739" opacity="0.32064159710294166"></circle><circle r="3.883858300982908" cx="202.17453311796686" cy="528.5210770075176" opacity="0.6957631980881023"></circle><circle r="5.795638990440663" cx="135.53161482560543" cy="540.3695949989445" opacity="0.6276875167619674"></circle><circle r="4.0462033608076515" cx="685.7619777828455" cy="430.14249284779356" opacity="0.3965671790234494"></circle><circle r="7.792347787612529" cx="317.30922968465023" cy="217.94384401211772" opacity="0.7138170998677508"></circle><circle r="6.482677403945192" cx="129.69891069470418" cy="95.17371471656458" opacity="0.3699003094273595"></circle><circle r="5.534254706980083" cx="644.089856975112" cy="503.6096072959794" opacity="0.8237440753339196"></circle><circle r="8.415355724790022" cx="293.0159407568879" cy="136.90896979354181" opacity="0.39143295625689944"></circle><circle r="10.90621653554355" cx="480.55962160647704" cy="222.66669905823483" opacity="0.13618500677515458"></circle><circle r="3.998214252189796" cx="745.7097440674186" cy="394.919078804124" opacity="0.4527272458565792"></circle><circle r="5.483311069932122" cx="779.72216934398" cy="174.08643256069308" opacity="0.580403391177808"></circle><circle r="6.242689372791732" cx="227.8990401391528" cy="613.3818339238205" opacity="0.8926823181471174"></circle><circle r="7.64067041613059" cx="747.6810023897469" cy="540.1424474609587" opacity="0.1540266542459177"></circle><circle r="9.003109002119217" cx="780.7079808746203" cy="557.7087940872345" opacity="0.36404832525618935"></circle><circle r="5.117454056109882" cx="527.0531623839435" cy="688.4823433345441" opacity="0.6640782482077927"></circle><circle r="5.840955999143441" cx="657.6581981902365" cy="185.84140114644788" opacity="0.7449020366862764"></circle><circle r="7.548329852183237" cx="213.80293392942528" cy="669.7306462899378" opacity="0.6140969165821639"></circle><circle r="5.415357063160819" cx="217.96222011024534" cy="49.782099206667205" opacity="0.9492498526963883"></circle><circle r="4.749455518106281" cx="697.3033478843056" cy="726.1700736388924" opacity="0.38034549700655995"></circle><circle r="9.413393951911052" cx="633.9666968608469" cy="429.4468115978622" opacity="0.9077397099277591"></circle><circle r="6.883457689422234" cx="58.359832320741376" cy="460.89112932691876" opacity="0.7728162640204104"></circle><circle r="4.943179137816862" cx="103.20769284716395" cy="704.2508237788519" opacity="0.4327892111024929"></circle><circle r="6.6456353464078575" cx="566.2019781950578" cy="687.5876477575697" opacity="0.22595763368826768"></circle><circle r="7.397578176756731" cx="782.7972556396563" cy="211.47099930657902" opacity="0.2273276474450962"></circle><circle r="7.6341188115218515" cx="406.84943214402244" cy="623.3518726334969" opacity="0.36477183042160877"></circle><circle r="4.765639256162422" cx="355.29959797654953" cy="698.5247468686313" opacity="0.3619407280898125"></circle><circle r="6.603909778404574" cx="778.5361171366045" cy="291.8510023223427" opacity="0.4557128884998507"></circle><circle r="7.577740709807641" cx="676.5563649447105" cy="640.0910114959528" opacity="0.42069008128474794"></circle><circle r="13.280412304822729" cx="460.5555167254108" cy="427.6007960812816" opacity="0.19305629617528844"></circle><circle r="8.111813789115695" cx="729.8340431251007" cy="156.05712434357878" opacity="0.679539333563775"></circle><circle r="8.307356089775839" cx="257.08261193700685" cy="678.8007356680498" opacity="0.9662111852108104"></circle><circle r="9.474377065822384" cx="347.99069488215736" cy="545.88016477208" opacity="0.9518259744276222"></circle><circle r="11.234976781816378" cx="24.47729852173336" cy="389.4602596864723" opacity="0.1022864653116208"></circle><circle r="5.485154680153828" cx="689.1864532714457" cy="507.58394345427075" opacity="0.41031112150393045"></circle><circle r="7.69236804868045" cx="460.4852775136425" cy="545.6511135138381" opacity="0.8468774520261256"></circle><circle r="8.307594254097683" cx="715.8250950541619" cy="465.77771829730324" opacity="0.7355928537592098"></circle><circle r="11.99235975337005" cx="406.48726201239083" cy="439.9839990357526" opacity="0.6135453761814672"></circle><circle r="8.05314793001957" cx="623.9519001856904" cy="471.3432274288772" opacity="0.837269737421693"></circle><circle r="4.685089301620264" cx="344.59850692210523" cy="634.195464375353" opacity="0.3750661573829135"></circle><circle r="12.147556714004336" cx="565.6971185260444" cy="441.2438362451343" opacity="0.16093149356661804"></circle><circle r="7.273524229904459" cx="233.77969664713834" cy="781.8452988141868" opacity="0.901048089025784"></circle><circle r="8.504042676760946" cx="93.44930293536999" cy="24.22303388981653" opacity="0.5078601267487498"></circle><circle r="8.32777383069526" cx="660.4038526801396" cy="220.542792241015" opacity="0.46759882637189587"></circle><circle r="4.111816265715444" cx="134.63855880958428" cy="694.5650450242051" opacity="0.47359985518594705"></circle><circle r="7.264541713217571" cx="101.38668957698258" cy="62.4552950043782" opacity="0.9572453747199432"></circle><circle r="8.399081786169543" cx="609.2190739276185" cy="758.3907634236307" opacity="0.7262272400286696"></circle><circle r="5.481525676595881" cx="294.38189701689316" cy="61.63770912899345" opacity="0.16392033777074563"></circle><circle r="3.2073621300310493" cx="526.1911082549103" cy="788.921042233146" opacity="0.3875900229295042"></circle><circle r="7.384130083182136" cx="590.7782167142554" cy="183.29337601961632" opacity="0.6062331489004226"></circle><circle r="4.362986093707475" cx="11.547705816296865" cy="237.56746338416013" opacity="0.18739075071127387"></circle><circle r="7.286425362959269" cx="272.3683534100212" cy="210.5882885241612" opacity="0.43315834166119604"></circle><circle r="4.697570230072254" cx="53.230705381066365" cy="700.3948877167608" opacity="0.8160930933598192"></circle><circle r="6.098040454532398" cx="16.39040574756449" cy="21.436487581580653" opacity="0.6762273499366103"></circle><circle r="7.310042820044226" cx="639.8215753998824" cy="146.4134911976058" opacity="0.6760774926913716"></circle><circle r="5.757194492224008" cx="252.42079768398412" cy="12.827106750009557" opacity="0.9960549969858292"></circle><circle r="6.882209520257597" cx="656.7932509136127" cy="69.18444984176317" opacity="0.546484269319096"></circle><circle r="4.757602707907915" cx="414.2363970543253" cy="721.3960976799649" opacity="0.4123333633185462"></circle><circle r="5.208234077716199" cx="688.178670865798" cy="131.5439332196152" opacity="0.7834715950530725"></circle><circle r="6.288582257240075" cx="550.1598001477981" cy="635.3425619576775" opacity="0.7680158335351087"></circle><circle r="10.141550607603909" cx="219.36270330888593" cy="726.4205556189089" opacity="0.35159401408193103"></circle><circle r="7.893983801336148" cx="306.63104990406254" cy="783.9751980875798" opacity="0.7465705826822118"></circle><circle r="6.682217356661347" cx="367.7568880530567" cy="491.5372536922536" opacity="0.25411600444491605"></circle><circle r="8.968462414339385" cx="253.25054212593622" cy="520.7418840242769" opacity="0.395491306644966"></circle><circle r="5.7051028861469" cx="29.814760230577495" cy="783.8106286012944" opacity="0.29758660636240064"></circle><circle r="4.896792021781973" cx="345.13685874721676" cy="265.80497043043164" opacity="0.24719098599904735"></circle><circle r="6.563993925576522" cx="331.3493529144662" cy="121.57509996804923" opacity="0.10885607998497965"></circle><circle r="5.0801978395126" cx="49.92003571157941" cy="161.2539100717352" opacity="0.7728614275655854"></circle><circle r="8.523695794277213" cx="69.49173193955083" cy="598.1618399640158" opacity="0.8119760635261629"></circle><circle r="6.724540443263547" cx="247.2286581984602" cy="172.16040140946015" opacity="0.20747183384823614"></circle><circle r="4.963531696342647" cx="275.7818660888013" cy="339.78157858798187" opacity="0.9286490779892702"></circle><circle r="7.953773988907754" cx="599.5756541565705" cy="148.96485660199164" opacity="0.1993093695017652"></circle><circle r="10.433462763262199" cx="306.96695971036434" cy="175.72053772889205" opacity="0.5498571485194423"></circle><circle r="7.066997070482953" cx="657.5823807639464" cy="712.3478973548454" opacity="0.1661788558945002"></circle><circle r="6.917613678338688" cx="510.9783408183582" cy="637.6876053182596" opacity="0.7456904786930196"></circle><circle r="6.3533496484126655" cx="171.99157589934418" cy="23.97484918318365" opacity="0.7625676787640863"></circle><circle r="2.643959210409047" cx="70.21687347870407" cy="195.27863926775862" opacity="0.7489285892519669"></circle><circle r="6.861696389283507" cx="97.85098369551254" cy="558.8299074032925" opacity="0.21897448488206378"></circle><circle r="6.073466536397442" cx="370.251044163427" cy="609.9333172336377" opacity="0.9360914106900472"></circle><circle r="5.731541331685296" cx="643.1052137626488" cy="527.2573893165609" opacity="0.9953454021740062"></circle><circle r="5.451994902444008" cx="36.279704324482566" cy="517.1722986772118" opacity="0.3867605696640546"></circle><circle r="7.921780235991548" cx="513.2126598220483" cy="181.04014447097725" opacity="0.5913354182697403"></circle><circle r="7.269701090668701" cx="643.8117128097042" cy="784.0197960082675" opacity="0.2695530823709886"></circle><circle r="6.947675040299966" cx="369.01010871997374" cy="288.3601310595422" opacity="0.7534488126145683"></circle><circle r="9.15638642265327" cx="710.9479043077116" cy="569.4422558585569" opacity="0.3092599914233172"></circle><circle r="8.522920240799865" cx="552.8002346741102" cy="522.0448676931787" opacity="0.6470511224992835"></circle><circle r="7.567650420076713" cx="579.5338844295262" cy="782.0631366614915" opacity="0.4491787946088853"></circle><circle r="5.926893592744908" cx="203.42928707751932" cy="140.894530310569" opacity="0.30441031848463684"></circle><circle r="7.827892301846347" cx="477.6703326035373" cy="60.535899197717214" opacity="0.3920760939320834"></circle><circle r="8.826175922851704" cx="187.02735145837164" cy="779.6148016954745" opacity="0.6823332066538442"></circle><circle r="6.781381812224353" cx="630.0245087009737" cy="548.9186601229931" opacity="0.8428205571498747"></circle><circle r="7.85182109091834" cx="526.7424524423036" cy="25.494124192913986" opacity="0.15460535351616514"></circle><circle r="5.236030391907951" cx="25.73480558539751" cy="484.00663469659486" opacity="0.45166350095245966"></circle><circle r="8.473721055419656" cx="738.1741483987233" cy="647.9688569201177" opacity="0.21507722309206026"></circle><circle r="7.562395586536798" cx="723.2037118388263" cy="421.29741023892296" opacity="0.12101614294150496"></circle><circle r="7.2480619255610055" cx="744.3712908149072" cy="725.7505432966605" opacity="0.1389004563636123"></circle><circle r="6.218513506658151" cx="227.19546878452482" cy="554.5035338054839" opacity="0.8589757174090042"></circle><circle r="8.452661063878473" cx="782.7507600783227" cy="760.9025864866021" opacity="0.5564575244403289"></circle><circle r="5.98682588323419" cx="475.0138485396017" cy="694.0401940426043" opacity="0.8693128910810617"></circle><circle r="6.459977308185" cx="268.9952110433834" cy="730.5140518753054" opacity="0.5494598791529094"></circle><circle r="7.833532916109858" cx="586.9435633024955" cy="496.765525349276" opacity="0.5510554892417657"></circle><circle r="9.045797351340973" cx="65.21741928975946" cy="306.55752717602695" opacity="0.8597009859706957"></circle><circle r="4.067543312350284" cx="200.06306264062135" cy="30.603878575759172" opacity="0.3209133521589198"></circle><circle r="7.188796006425928" cx="471.0236898784203" cy="100.41249658266683" opacity="0.9093124521878009"></circle><circle r="3.2176632731072887" cx="67.55672029666722" cy="251.20449617214868" opacity="0.45345897829249493"></circle><circle r="8.522516535078342" cx="383.76167889092073" cy="667.3390411688824" opacity="0.22243680025216628"></circle><circle r="9.591252839311316" cx="693.6906964636531" cy="351.4245305892937" opacity="0.6635753930759064"></circle><circle r="8.34548772788369" cx="152.25436049681048" cy="417.686804165637" opacity="0.273634744601183"></circle><circle r="11.140569121828836" cx="439.42982931501246" cy="178.06345410077373" opacity="0.19051749274401808"></circle><circle r="7.757503804485431" cx="444.2998370087336" cy="371.0601308739188" opacity="0.28921211488516774"></circle><circle r="6.277213993415256" cx="311.79069402409544" cy="256.67811278371994" opacity="0.5236724507956325"></circle><circle r="7.275509410034939" cx="334.83792806259464" cy="77.4565521991341" opacity="0.7069745800263296"></circle><circle r="7.028057505173175" cx="552.351657143202" cy="311.88306387674487" opacity="0.894188953002485"></circle><circle r="10.523750578512216" cx="550.8573567053714" cy="139.72867996296506" opacity="0.6027803166043741"></circle><circle r="6.11567638250718" cx="679.9905112471582" cy="459.43024483955816" opacity="0.2031031140220946"></circle><circle r="5.845226289450526" cx="593.6058656034025" cy="634.0644719468759" opacity="0.7606491865885622"></circle><circle r="5.779985761059052" cx="535.7718192205274" cy="570.7878645681601" opacity="0.7795831788078096"></circle><circle r="8.879224094837827" cx="505.02392565773266" cy="335.1996952176745" opacity="0.22849996463810177"></circle><circle r="7.592161312613623" cx="52.863715336156055" cy="633.2608573203564" opacity="0.36460175225643254"></circle><circle r="9.01506627984574" cx="493.3416250941863" cy="143.4309568091552" opacity="0.5884436335206578"></circle><circle r="5.13921016447537" cx="392.294311160157" cy="357.74825423821835" opacity="0.6713591535726467"></circle></g></svg>
